<?xml version="1.0" encoding="UTF-8"?><svg id="Calque_2" xmlns="http://www.w3.org/2000/svg" viewBox="0 0 2000 2000"><defs><style>.cls-1{fill:#fff;}</style></defs><g id="Logo_White"><rect width="2000" height="2000"/><path class="cls-1" d="m586.72,878.8v603.36h-68.88v-447.72H139v692.63c0,73.97,59.96,133.93,133.93,133.93h558.69c73.97,0,133.93-59.96,133.93-133.93l-.03-937.07c0,69-87.53,88.8-133.91,88.8h-244.91Z"/><path class="cls-1" d="m831.62,139H139v826.56h378.84v-137.76h313.78c73.26,0,132.77-58.81,133.91-131.8.01-.71.03-1.42.03-2.13v-420.93c0-73.97-59.97-133.94-133.94-133.94Zm-244.9,378.84h-68.88v-68.88h68.88v68.88Z"/><path class="cls-1" d="m1168.37,139c-73.97,0-133.93,59.96-133.93,133.93v692.63h378.84v-137.76h68.88v585.48s378.84,0,378.84,0V272.93c0-73.97-59.96-133.93-133.93-133.93h-558.69Zm313.79,378.84h-68.88v-68.88h68.88v68.88Z"/><polygon class="cls-1" points="1861 1861 1861 1482.16 1413.04 1482.16 1413.04 1034.44 1034 1034.44 1034 1861 1861 1861"/></g></svg>