<?xml version="1.0" encoding="UTF-8"?><svg id="Calque_2" xmlns="http://www.w3.org/2000/svg" viewBox="0 0 1722 1722"><g id="Logo_Black"><path d="m447.72,739.8v603.36h-68.88v-447.72H0v692.63c0,73.97,59.96,133.93,133.93,133.93h558.69c73.97,0,133.93-59.96,133.93-133.93l-.03-937.07c0,69-87.53,88.8-133.91,88.8h-244.91Z"/><path d="m692.63,0H0v826.56h378.84v-137.76h313.79c73.25,0,132.76-58.82,133.9-131.8.01-.71.03-1.42.03-2.13V133.93C826.56,59.96,766.6,0,692.63,0Zm-244.91,378.84h-68.88v-68.88h68.88v68.88Z"/><path d="m1029.37,0c-73.97,0-133.93,59.96-133.93,133.93v692.63h378.84v-137.76h68.88v585.48s378.84,0,378.84,0V133.93c0-73.97-59.96-133.93-133.93-133.93h-558.69Zm313.79,378.84h-68.88v-68.88h68.88v68.88Z"/><polygon points="1722 1722 1722 1343.16 1274.04 1343.16 1274.04 895.44 895 895.44 895 1722 1722 1722"/></g></svg>